<?xml version="1.0" encoding="UTF-8"?>
<svg id="Layer_1" data-name="Layer 1" xmlns="http://www.w3.org/2000/svg" viewBox="0 0 1621.7 293.55">
  <path d="m181.31,235.56l-8.48,46.46H15.74L59.62,29.06h61.58l-36.14,206.5h96.24Z" style="fill: #297bff; stroke-width: 0px;"/>
  <path d="m387.8,104.28l-19.17,109.15c-4.79,26.55-5.16,35.77,6.27,35.77l12.54-1.47v33.92l-55.31,4.79c-12.91,0-25.81-5.53-25.81-21.76v-6.27h-.37c-8.85,15.12-28.39,28.02-50.89,28.02-37.98,0-55.68-31.71-55.68-68.96,0-50.89,33.19-111.36,93.29-111.36,16.59,0,28.02,7.01,36.14,14.38l6.27-12.91,52.73-3.32Zm-66.74,47.2c-7.01-5.9-13.64-8.48-19.91-8.48-27.29,0-43.14,42.04-43.14,73.01,0,21.02,6.64,32.45,19.91,32.45s28.76-15.12,33.92-44.62l9.22-52.36Z" style="fill: #297bff; stroke-width: 0px;"/>
  <path d="m608.68,281.65l-53.1,4.79c-13.64,0-30.6-11.43-30.6-32.08,0-4.42,2.58-19.91,3.69-25.44l11.43-63.79c1.11-5.9,4.42-19.17-3.69-19.17-5.53,0-19.54,12.91-27.29,18.81l-24.34,20.65-16.96,96.61h-58.26l30.61-174.42,51.26-1.11v32.45l14.38-11.06c19.91-15.49,33.56-21.76,51.26-21.76,32.82,0,47.2,24.34,42.77,50.15l-9.96,57.16c-1.84,10.69-3.32,18.81-3.32,24.34,0,8.11,2.95,11.43,9.59,11.43l12.54-1.47v33.92Z" style="fill: #297bff; stroke-width: 0px;"/>
  <path d="m784.19,157.38c-12.17-9.59-28.76-14.75-39.45-14.75-30.24,0-54.57,25.44-54.57,61.21,0,30.61,18.07,44.99,39.46,44.99,12.91,0,30.24-8.48,42.77-20.28l19.54,25.44c-21.76,22.86-47.94,32.45-74.12,32.45-59.37,0-86.29-37.98-86.29-78.91,0-48.31,37.98-101.41,106.57-101.41,19.17,0,40.93,6.27,60.47,18.81l-14.38,32.45Z" style="fill: #297bff; stroke-width: 0px;"/>
  <path d="m881.17,221.91c-4.42,0-9.22,0-14.01-.37,4.06,23.23,24.34,27.29,36.5,27.29,15.86,0,32.45-7.74,47.2-19.17l21.02,23.23c-20.28,23.23-48.3,33.56-74.12,33.56-60.47,0-87.39-37.98-87.39-79.28,0-48.31,38.72-101.04,108.78-101.04,44.99,0,63.42,26.18,63.42,50.15,0,33.56-37.61,67.48-101.41,65.64Zm33.56-79.28c-18.44,0-44.62,16.59-48.31,51.26,4.79.37,9.22,0,13.64-.37,29.13-2.58,51.62-17.7,51.62-33.19,0-12.17-8.48-17.7-16.96-17.7Z" style="fill: #297bff; stroke-width: 0px;"/>
  <path d="m1197.18,106.13c1.84,47.94-16.22,73.75-54.57,86.29l19.17,45.72c3.32,6.27,7.01,11.43,13.64,11.43l21.39-1.84v33.92l-43.51,4.79c-25.44,0-35.03-22.12-41.67-37.61l-18.44-42.77-25.44,6.27-12.54,69.69h-58.26L1045.25,7.67l58.63-1.47-29.13,165.57,28.76-7.01c26.92-6.64,43.14-27.29,43.14-57.16l50.52-1.47Z" style="fill: #ffffff; stroke-width: 0px;"/>
  <path d="m1282.35,213.43c-1.84,10.69-3.32,18.81-3.32,24.34,0,8.11,2.95,11.43,9.59,11.43l12.54-1.47v33.92l-53.1,4.79c-14.75,0-30.61-12.54-30.61-32.08,0-4.42,1.84-15.49,2.95-21.02l22.12-125.74,58.63-1.47-18.81,107.31Zm-4.79-125.37c-17.33,0-29.13-12.91-29.13-28.76,0-17.7,15.49-33.92,34.66-33.92,17.33,0,29.87,12.91,29.87,29.13,0,18.44-16.59,33.56-35.4,33.56Z" style="fill: #ffffff; stroke-width: 0px;"/>
  <path d="m1467.82,109.08l-6.27,37.24h-46.09l-13.64,75.22c-4.06,22.12,5.53,30.97,26.92,28.76l17.33-1.84v33.19l-50.52,4.79c-22.12,0-55.68-6.64-55.68-37.98,0-2.21.74-9.59,1.11-12.91l15.86-89.24h-30.24l6.64-37.24,30.97-2.95,14.01-50.89h52.73l-9.22,53.84h46.09Z" style="fill: #ffffff; stroke-width: 0px;"/>
  <path d="m1603.55,286.44h-127.43l3.32-28.39h127.43l-3.32,28.39Z" style="fill: #ffffff; stroke-width: 0px;"/>
</svg>